<?xml version="1.0" standalone="no"?>
<!DOCTYPE svg PUBLIC "-//W3C//DTD SVG 20010904//EN"
 "http://www.w3.org/TR/2001/REC-SVG-20010904/DTD/svg10.dtd">
<svg version="1.0" xmlns="http://www.w3.org/2000/svg"
 width="1280.000000pt" height="720.000000pt" viewBox="0 0 1280.000000 720.000000"
 preserveAspectRatio="xMidYMid meet">
<metadata>
Created by potrace 1.16, written by Peter Selinger 2001-2019
</metadata>
<g transform="translate(0.000000,720.000000) scale(0.100000,-0.100000)"
fill="#000000" stroke="none">
<path d="M7502 5504 c-26 -18 -21 -31 16 -46 l27 -10 -42 -16 c-64 -26 -62
-32 9 -32 54 0 68 -4 79 -19 12 -18 19 -19 59 -10 25 5 117 12 205 14 88 3
201 11 250 19 50 8 171 19 270 26 179 11 322 23 485 40 47 5 153 17 235 26 83
9 152 18 155 21 3 3 -60 3 -140 -1 -80 -3 -341 -9 -580 -12 -391 -5 -441 -7
-497 -25 -34 -10 -71 -19 -83 -19 -11 0 -20 -4 -20 -9 0 -14 31 -22 44 -13 6
5 25 12 41 16 27 6 28 5 10 -6 -11 -6 -26 -18 -34 -25 -7 -8 -20 -12 -28 -9
-8 3 -58 6 -111 7 -89 1 -95 2 -67 14 l30 13 -25 6 c-35 9 -263 24 -272 19
-13 -7 -9 22 4 35 17 17 7 15 -20 -4z"/>
<path d="M2105 5349 c-77 -10 -147 -18 -155 -19 -8 -1 3 -8 25 -15 l40 -12
-65 -6 c-154 -14 -180 -15 -180 -6 0 5 -10 14 -22 19 -17 8 -10 9 28 4 33 -3
54 -2 59 5 4 7 -5 11 -23 11 -16 0 -49 7 -73 16 -39 14 -77 15 -314 8 -148 -5
-441 -9 -650 -9 -384 1 -416 -6 -120 -25 88 -6 223 -15 300 -20 77 -5 228 -12
335 -15 332 -9 423 -15 454 -30 17 -9 34 -11 45 -6 30 16 145 21 261 12 99 -8
117 -8 127 6 11 14 31 17 128 21 48 2 37 14 -29 32 -45 12 -47 14 -26 25 39
21 2 22 -145 4z"/>
<path d="M7372 5213 c-23 -25 -23 -29 -9 -53 14 -22 14 -33 4 -75 l-13 -48
-17 52 c-9 29 -14 57 -11 62 3 5 1 9 -4 9 -16 0 -40 -35 -47 -70 -4 -19 -13
-45 -21 -57 -8 -12 -14 -29 -14 -38 0 -8 -5 -15 -11 -15 -6 0 -23 -8 -37 -19
-15 -10 -44 -24 -64 -32 -21 -7 -38 -19 -38 -25 0 -15 -32 -27 -52 -19 -8 3
-84 -24 -169 -60 -85 -37 -159 -69 -166 -72 -7 -3 -15 -14 -19 -25 -4 -15 -12
-19 -32 -15 -26 5 -39 1 -122 -36 -25 -11 -61 -27 -80 -35 l-35 -15 43 -8 c23
-5 46 -10 51 -13 4 -3 62 -6 127 -6 l119 -1 155 76 155 77 129 4 c85 2 134 -1
143 -8 7 -6 64 -12 126 -14 132 -4 197 -12 214 -26 18 -15 74 -16 80 -2 11 30
83 21 109 -13 11 -16 15 -15 48 11 21 15 52 32 69 37 29 8 34 15 55 82 12 41
22 83 22 95 0 11 11 34 25 50 14 17 25 39 25 51 0 20 -5 21 -157 23 -87 1
-177 1 -201 -1 -60 -3 -72 10 -72 80 0 62 -12 82 -30 49 l-11 -21 -20 22 c-10
12 -19 26 -19 30 0 5 -12 12 -27 16 l-28 7 30 7 c18 4 -13 7 -75 8 -102 1
-106 0 -128 -26z"/>
<path d="M2290 5132 c-89 -3 -115 -10 -85 -22 19 -8 19 -9 -2 -9 -12 -1 -25
-6 -28 -11 -4 -6 -11 -8 -16 -5 -5 3 -6 -1 -3 -9 3 -9 1 -16 -6 -16 -6 0 -8
-4 -5 -10 3 -5 -1 -10 -10 -10 -8 0 -18 7 -21 15 -12 30 -22 13 -29 -49 -3
-36 -12 -69 -18 -75 -7 -5 -39 -10 -72 -11 -33 0 -125 -4 -205 -8 -138 -7
-145 -8 -148 -29 -2 -12 5 -27 17 -35 13 -9 26 -42 39 -93 35 -138 33 -135
110 -150 17 -4 32 -11 32 -16 0 -12 27 -12 32 0 2 6 26 13 54 16 39 6 54 4 66
-8 14 -14 23 -14 80 -2 36 7 119 17 184 20 66 4 137 14 159 21 25 8 87 13 164
13 l122 0 97 -45 c98 -47 184 -89 347 -173 50 -26 129 -62 177 -81 49 -19 88
-38 88 -42 0 -12 -18 -10 -110 15 -77 20 -109 22 -355 23 -309 1 -604 -11
-618 -25 -6 -6 72 -10 214 -11 123 0 298 -5 389 -9 90 -5 170 -6 177 -4 7 3
13 0 13 -6 0 -14 77 -14 82 0 4 11 115 -4 147 -20 24 -12 15 -26 -20 -33 -57
-11 -94 -24 -94 -34 0 -12 368 -17 495 -6 83 6 95 9 99 27 2 11 11 25 20 32
14 10 14 12 1 16 -60 19 -155 31 -275 36 l-140 6 35 23 c22 14 44 20 58 17 12
-3 36 2 53 11 28 14 32 14 49 -1 12 -11 26 -14 44 -9 20 5 33 1 49 -13 17 -16
38 -20 89 -22 37 0 69 3 73 9 8 14 -29 30 -70 30 -20 0 -45 4 -55 10 -10 5
-57 13 -105 16 -77 6 -88 9 -95 29 -9 23 -93 60 -111 49 -5 -3 -9 4 -9 14 0
13 -9 22 -27 27 -16 3 -50 17 -78 30 -188 88 -185 87 -202 74 -13 -11 -19 -9
-37 13 -35 44 -309 163 -369 161 -31 -2 -40 2 -44 17 -3 11 -11 20 -18 20 -27
0 -135 62 -135 78 0 9 -7 26 -15 36 -8 11 -15 32 -15 46 0 29 -35 74 -51 65
-5 -4 -9 -24 -9 -46 0 -32 -3 -39 -20 -39 -17 0 -20 7 -20 43 0 24 5 48 12 55
9 9 8 18 -2 38 -19 35 -33 39 -120 36z"/>
<path d="M1550 4574 c0 -10 -6 -13 -19 -9 -10 3 -23 -1 -30 -9 -17 -21 -9 -52
12 -48 19 3 23 -13 6 -23 -7 -5 -5 -13 6 -25 14 -16 30 -18 99 -16 44 2 89 7
99 11 25 10 21 48 -8 79 -14 15 -25 31 -25 36 0 4 -11 7 -25 5 -14 -1 -28 2
-32 8 -3 6 -13 2 -22 -9 -9 -11 -15 -17 -14 -15 3 5 -29 30 -39 31 -5 0 -8 -7
-8 -16z"/>
<path d="M11204 4529 c-56 -4 -119 -12 -140 -18 -22 -6 -107 -11 -190 -11 -83
0 -164 -4 -180 -9 -16 -5 -41 -12 -56 -15 -21 -5 -25 -10 -21 -28 3 -13 10
-28 14 -34 10 -12 402 -27 462 -17 49 8 33 29 -29 39 -44 6 -55 16 -32 31 13
7 176 18 443 29 77 3 208 9 290 13 83 4 164 3 180 -2 17 -5 80 -8 140 -7 61 1
124 2 140 1 96 -4 159 0 165 10 6 8 9 7 12 -2 4 -12 7 -12 21 0 10 8 28 11 45
8 15 -3 34 -2 42 4 13 7 13 9 0 10 -59 6 -1226 3 -1306 -2z"/>
<path d="M10435 4359 c-4 -11 -4 -42 0 -70 6 -45 5 -49 -14 -49 -30 0 -43 -41
-39 -125 3 -64 1 -70 -17 -70 -17 0 -20 -7 -20 -39 0 -38 -3 -41 -59 -73 -32
-18 -64 -33 -71 -33 -7 0 -23 -8 -36 -18 -38 -30 -231 -133 -326 -175 -49 -22
-17 -28 126 -24 l150 4 62 37 c34 20 64 35 66 32 3 -2 -14 -15 -36 -28 -45
-25 -53 -41 -18 -34 12 2 56 10 97 16 41 7 92 18 113 26 29 11 48 12 75 4 20
-5 48 -10 60 -10 26 0 45 -19 93 -92 17 -27 34 -48 38 -48 3 0 6 21 6 46 1 48
16 68 47 58 10 -3 22 4 32 18 16 22 16 22 31 3 14 -20 15 -20 21 1 5 19 16 23
82 28 130 12 142 15 142 42 0 12 5 26 10 29 6 3 10 48 10 100 0 130 20 140 34
16 6 -59 26 -78 26 -25 0 21 9 54 20 72 21 35 26 77 10 87 -5 3 -10 15 -10 26
0 26 -40 119 -51 119 -5 0 -9 -34 -9 -76 0 -65 -2 -75 -16 -70 -9 3 -27 6 -40
6 -36 0 -40 25 -10 70 14 22 26 49 26 60 0 11 11 27 25 36 13 9 27 24 30 35 4
10 17 22 31 25 24 6 34 24 13 24 -34 0 -106 -26 -120 -43 -13 -16 -31 -21 -80
-24 -101 -6 -139 -19 -139 -48 0 -31 -14 -32 -34 -3 -15 21 -16 17 -16 -60 l0
-82 -139 0 -139 0 -7 89 c-8 96 -4 111 25 111 20 0 19 8 -10 88 -14 36 -35 42
-45 11z"/>
<path d="M5230 4279 c-254 -15 -372 -27 -382 -37 -8 -8 -4 -9 11 -5 11 3 21 1
21 -5 0 -5 14 -15 30 -21 17 -5 30 -15 30 -20 0 -6 6 -11 14 -11 8 0 16 -3 18
-8 7 -16 109 -82 118 -77 6 4 10 1 10 -5 0 -6 5 -8 10 -5 6 3 10 -1 10 -9 0
-9 -6 -16 -12 -16 -7 0 3 -11 22 -23 57 -38 130 -79 130 -73 0 3 -25 20 -56
37 -41 24 -52 34 -42 41 9 6 6 7 -9 3 -12 -3 -24 -1 -27 4 -4 6 5 9 21 8 16
-2 28 -8 28 -16 0 -8 6 -16 14 -19 9 -3 11 0 6 8 -5 9 -4 11 4 6 6 -4 9 -12 6
-17 -4 -5 3 -9 14 -9 12 0 21 -5 21 -12 0 -6 3 -8 7 -5 3 4 12 -1 20 -11 8 -9
11 -11 8 -4 -6 12 -3 12 16 2 31 -16 39 -25 16 -17 -12 5 -16 3 -11 -5 5 -8 2
-9 -9 -5 -32 12 -17 -3 24 -23 23 -12 39 -24 36 -27 -3 -2 -15 0 -26 7 -12 6
-21 8 -21 5 0 -7 163 -85 176 -85 5 1 -2 7 -15 14 -23 13 -23 13 -2 19 13 3
19 1 15 -5 -4 -6 2 -8 17 -3 19 5 21 4 9 -4 -13 -9 -12 -11 5 -12 11 -1 29 -1
40 -1 17 2 18 0 5 -9 -12 -8 -8 -9 15 -5 17 3 23 2 15 -1 -10 -4 -1 -11 25
-19 l40 -13 -35 4 c-33 4 -32 3 9 -10 24 -8 55 -12 69 -8 19 4 23 3 17 -7 -6
-10 -3 -12 13 -8 12 3 23 1 25 -5 2 -6 25 -10 52 -10 33 0 43 -3 30 -8 -11 -4
-17 -8 -13 -8 10 -1 193 -38 272 -55 49 -11 75 -12 88 -5 11 6 24 8 31 5 7 -2
3 -5 -7 -5 -42 -2 -5 -12 60 -17 38 -3 80 -8 94 -12 14 -3 36 -7 50 -8 14 -1
88 -12 165 -23 298 -44 568 -72 829 -86 149 -8 289 -17 311 -20 103 -13 929
-25 1065 -15 115 8 299 23 342 29 4 1 5 8 2 16 -4 10 3 18 20 25 31 11 34 30
6 37 -11 3 -20 9 -20 13 0 4 -36 13 -80 20 -44 7 -80 16 -80 20 0 8 -40 13
-170 24 -88 8 -139 17 -144 25 -3 4 -37 6 -75 4 -60 -3 -70 -1 -65 12 4 10 0
15 -10 15 -9 0 -16 -4 -16 -9 0 -14 -123 -8 -128 7 -4 13 -32 17 -32 4 0 -5
-7 -9 -16 -9 -10 0 -14 7 -10 20 4 18 0 19 -87 13 -56 -3 -86 -2 -77 4 11 7 8
11 -15 21 -37 15 -75 18 -75 6 0 -5 -8 -6 -17 -2 -21 8 -112 14 -233 15 -90 1
-175 29 -183 60 -3 11 -5 10 -6 -4 -1 -12 -6 -16 -17 -12 -9 3 -28 6 -42 7
-24 0 -25 1 -7 9 14 6 4 9 -37 9 -44 1 -63 6 -85 25 -23 19 -45 24 -115 30
-48 4 -100 14 -115 21 -32 17 -63 19 -63 6 0 -14 -53 15 -81 45 -13 14 -36 32
-51 40 -16 8 -28 19 -28 23 0 16 -61 71 -71 65 -6 -3 -16 0 -24 6 -12 10 -16
9 -21 -4 -7 -17 -34 -22 -34 -6 0 6 -21 10 -47 10 -27 0 -77 4 -113 10 -36 6
-87 10 -114 10 -27 -1 -52 3 -55 9 -4 6 -30 13 -59 16 -29 2 -61 9 -70 14 -19
10 -170 23 -317 27 -134 3 -227 14 -243 27 -9 7 -16 7 -24 -1 -12 -12 -71 -6
-105 10 -12 6 -36 8 -53 5 -17 -4 -29 -3 -26 2 13 20 -178 31 -354 20z"/>
<path d="M3970 4260 c-14 -11 -35 -20 -47 -20 -22 0 -22 -1 -6 -20 14 -16 30
-20 77 -20 56 0 59 1 40 16 -18 14 -14 15 41 9 124 -13 345 -101 501 -201 190
-121 380 -289 481 -423 73 -97 76 -100 67 -76 -19 51 -99 150 -218 270 -205
206 -276 259 -503 376 -80 41 -101 48 -175 54 -56 4 -101 14 -137 31 -64 29
-88 30 -121 4z"/>
<path d="M4012 4167 c-14 -18 -32 -77 -32 -103 0 -17 6 -23 28 -26 19 -2 28
-9 29 -23 1 -11 4 -50 6 -87 3 -36 7 -71 11 -76 11 -18 -23 -22 -179 -22 -108
0 -156 4 -161 12 -4 6 -10 47 -12 90 -5 81 -11 93 -27 56 -6 -13 -18 -24 -28
-26 -15 -3 -18 2 -15 24 3 27 0 29 -57 41 -33 6 -90 12 -126 13 -60 0 -67 2
-77 25 -9 20 -19 25 -49 25 -21 0 -69 7 -108 15 -94 20 -118 19 -141 -6 -10
-12 -39 -35 -64 -52 -98 -66 -217 -190 -300 -313 -79 -115 -171 -310 -194
-409 -7 -27 -6 -28 7 -11 13 17 14 17 31 1 20 -21 17 -24 46 48 29 73 36 69
11 -6 -41 -119 -55 -216 -56 -377 0 -156 11 -230 50 -339 19 -54 19 -64 0 -31
l-14 25 -2 -30 c-2 -16 -3 -38 -2 -48 0 -16 -1 -16 -20 0 -20 18 -20 18 -3
-16 104 -202 224 -286 536 -372 109 -30 158 -37 130 -19 -12 8 -10 10 10 10
25 1 24 1 -5 15 -19 10 -22 13 -7 9 28 -7 62 4 62 20 0 7 -35 36 -77 64 -43
28 -94 65 -113 82 -31 28 -28 27 25 -8 33 -22 80 -49 105 -62 25 -12 54 -30
65 -38 12 -10 15 -11 8 -2 -22 24 -14 33 12 16 32 -21 47 -20 43 2 -4 22 -5
23 -118 114 -173 138 -314 301 -375 433 -74 159 -83 390 -24 613 17 65 72 192
83 192 3 0 -9 -36 -25 -80 -32 -89 -37 -121 -12 -75 15 26 18 27 21 11 4 -18
5 -18 19 5 17 29 16 24 -23 -116 -26 -90 -28 -115 -28 -255 0 -169 13 -226 75
-335 34 -60 149 -206 186 -235 14 -11 23 -24 18 -28 -10 -10 -138 129 -190
209 -50 75 -96 192 -115 292 -14 74 -26 82 -21 14 7 -116 61 -253 133 -339 53
-64 227 -233 293 -284 319 -249 751 -458 1068 -519 92 -18 275 -20 332 -4 59
16 117 61 174 132 56 71 139 233 146 285 2 18 7 48 11 65 6 28 8 30 15 12 6
-15 8 -10 8 19 1 37 0 38 -13 20 -13 -17 -15 -9 -11 76 3 52 1 100 -3 106 -13
20 -49 26 -65 10 -8 -9 -18 -11 -23 -6 -8 8 -74 28 -169 52 -22 5 -47 13 -55
17 -9 5 -30 12 -48 16 -18 3 -32 10 -32 13 0 4 -12 8 -26 9 -14 0 -51 15 -82
32 -32 17 -84 45 -118 62 -67 35 -83 61 -78 123 3 41 8 37 -116 86 -30 12
-120 48 -200 80 -80 32 -180 71 -224 86 -43 15 -94 38 -113 51 -18 13 -37 23
-40 23 -3 0 -11 8 -18 17 -11 14 -15 5 -31 -61 -15 -64 -19 -74 -26 -55 -5 13
-6 47 -2 76 5 43 3 54 -10 59 -10 4 -16 19 -17 43 -1 35 -2 35 -11 -11 -6 -30
-16 -48 -24 -48 -11 0 -14 -16 -14 -66 0 -41 -4 -63 -10 -59 -5 3 -10 37 -10
76 0 99 -16 95 -117 -28 -36 -43 -36 -50 -2 -88 18 -21 53 -95 44 -95 -2 0
-20 23 -38 50 -44 65 -47 57 -47 -113 1 -101 4 -138 16 -157 8 -14 13 -17 10
-8 -8 29 64 40 98 15 25 -18 18 -72 -9 -72 -11 0 -23 -4 -27 -10 -5 -6 -8 -6
-8 1 0 6 -14 11 -31 11 -31 0 -31 -1 -26 -44 2 -24 0 -46 -5 -49 -18 -11 -53
5 -92 43 l-39 38 6 -30 c3 -16 9 -38 12 -47 4 -10 3 -18 -2 -18 -27 0 -82 266
-84 402 -1 100 -18 56 -27 -67 -6 -86 -7 -88 -13 -40 -9 65 -11 216 -3 282 6
50 7 51 28 38 22 -14 22 -13 35 48 20 97 57 202 113 320 48 100 68 127 68 92
0 -8 5 -26 12 -40 17 -38 28 -13 28 68 0 37 4 67 9 67 13 0 18 -19 26 -86 3
-32 13 -84 22 -114 8 -30 16 -60 18 -66 4 -15 75 -23 203 -25 78 -1 105 -5
109 -15 3 -8 14 -14 25 -14 10 0 16 5 13 10 -3 6 1 10 9 10 8 0 19 -8 25 -17
5 -9 22 -18 38 -19 15 -1 35 -2 44 -3 9 0 21 -18 29 -41 7 -22 17 -40 21 -40
4 0 27 27 51 60 35 48 50 61 78 65 19 3 54 10 76 15 42 10 46 9 189 -44 22 -8
54 -21 70 -30 17 -9 37 -16 45 -16 8 0 50 -12 93 -27 59 -20 74 -29 60 -34
-12 -5 -5 -8 23 -8 23 -1 92 -19 155 -41 169 -61 329 -109 329 -101 0 5 -46
29 -102 54 -160 71 -499 225 -543 247 -62 30 -26 24 46 -9 35 -16 132 -59 214
-96 83 -37 220 -99 305 -137 85 -38 165 -76 177 -84 13 -8 43 -17 67 -20 44
-6 46 -5 105 52 33 32 57 61 53 64 -4 4 -43 17 -87 29 -44 13 -118 40 -165 61
-47 20 -116 50 -155 65 -38 16 -77 34 -85 41 -8 7 -28 16 -45 20 -39 9 -337
128 -395 158 -25 13 -59 26 -76 29 -18 3 -64 20 -103 38 -51 23 -71 37 -71 50
0 30 4 34 25 32 13 -2 8 4 -14 16 -19 10 -43 16 -53 13 -14 -3 -18 2 -18 24
-1 41 -26 142 -40 159 -6 8 -23 15 -38 17 -25 3 -26 5 -23 68 2 55 -1 67 -18
77 -15 9 -21 9 -29 0z m-663 -190 c9 -26 28 -57 42 -70 15 -12 29 -30 33 -41
5 -14 13 -17 34 -14 15 3 38 2 52 -2 18 -6 9 -8 -35 -9 -33 -1 -83 -4 -111 -7
l-51 -6 -5 93 c-3 52 -4 98 -1 102 10 17 27 -1 42 -46z m597 -1055 c4 -33 44
-93 56 -86 7 4 8 2 4 -4 -4 -7 -2 -12 3 -12 6 0 11 -6 11 -14 0 -8 7 -17 16
-20 8 -3 13 -10 10 -15 -3 -5 1 -11 9 -15 8 -3 15 -10 15 -15 0 -6 -17 -4 -42
5 -49 17 -56 13 -35 -18 36 -51 47 -60 62 -55 9 4 15 1 15 -8 0 -8 -6 -15 -12
-16 -10 0 -10 -2 0 -6 6 -2 12 -13 12 -23 0 -10 5 -22 10 -25 15 -10 12 -23
-7 -27 -14 -2 -7 -14 30 -51 26 -26 44 -47 40 -47 -5 0 -1 -6 8 -13 9 -7 21
-22 28 -34 6 -13 18 -23 26 -23 8 0 12 -6 9 -14 -3 -9 4 -19 18 -27 13 -6 36
-23 51 -35 16 -13 39 -24 52 -24 12 0 28 -7 35 -15 7 -8 18 -15 24 -15 6 0 25
-7 41 -16 51 -27 194 -62 285 -70 25 -2 64 -6 88 -9 26 -4 42 -2 42 4 0 6 5
11 11 11 7 0 22 11 35 26 13 14 24 21 24 16 0 -4 -8 -17 -18 -28 -10 -11 -22
-31 -25 -46 -4 -14 -15 -35 -24 -46 l-18 -21 -135 20 c-286 41 -454 118 -582
267 -94 109 -194 359 -199 497 -1 33 -7 63 -13 67 -8 5 -7 8 2 8 6 0 12 10 13
23 0 21 1 21 11 -3 6 -14 12 -35 14 -48z m-694 -488 c240 -192 567 -370 873
-476 61 -21 103 -38 94 -38 -31 0 -332 109 -399 145 -14 8 -68 35 -120 61
-149 74 -354 210 -526 350 -14 11 -19 24 -9 24 2 0 42 -30 87 -66z"/>
<path d="M4172 3990 c9 -14 20 -24 25 -23 4 1 9 -8 10 -20 1 -12 5 -40 10 -62
7 -34 12 -40 36 -43 23 -3 26 -6 16 -18 -9 -12 -6 -16 18 -25 17 -5 35 -19 40
-31 6 -13 37 -30 93 -50 121 -43 136 -45 143 -16 12 44 7 67 -18 84 -14 9 -25
21 -25 28 0 6 5 4 10 -4 5 -8 10 -10 10 -4 0 12 -21 34 -33 34 -4 0 -5 -5 -1
-11 9 -16 -74 31 -89 50 -10 12 -9 14 6 8 11 -4 16 -3 12 4 -4 6 -14 8 -23 4
-16 -6 -84 22 -90 38 -2 4 -8 7 -13 7 -6 0 -8 -4 -5 -8 3 -5 -15 -9 -39 -10
-25 0 -45 4 -45 9 0 6 6 9 13 8 6 -1 21 -1 32 0 18 1 19 2 2 12 -9 5 -22 7
-27 4 -6 -3 -10 0 -10 8 0 7 -12 20 -27 27 -16 8 -32 16 -38 19 -5 3 -2 -6 7
-19z"/>
<path d="M11837 3754 c-1 -1 -87 -5 -192 -8 -214 -7 -342 -15 -366 -22 -9 -3
-19 -14 -22 -24 -3 -13 -14 -20 -29 -20 -21 -1 -22 -2 -5 -14 9 -7 17 -23 17
-35 0 -16 6 -21 27 -21 25 0 26 -1 11 -17 -14 -13 -20 -14 -32 -3 -14 11 -16
9 -16 -9 0 -11 -11 -28 -25 -37 -14 -9 -22 -21 -18 -27 3 -6 1 -7 -5 -3 -7 4
-12 3 -12 -2 0 -6 -12 -13 -27 -16 -52 -12 -83 -28 -83 -43 0 -8 -6 -13 -12
-10 -7 2 -21 0 -32 -5 -15 -8 -16 -12 -5 -19 22 -14 32 -10 24 9 -5 13 -3 14
6 5 11 -11 5 -33 -10 -33 -4 0 -33 16 -65 35 -71 42 -83 45 -30 7 67 -50 198
-194 232 -257 83 -155 127 -257 146 -340 7 -28 6 -28 -7 -10 -7 11 -23 49 -34
85 -12 36 -36 97 -53 135 l-32 70 -12 -55 c-28 -128 -169 -322 -303 -413 -121
-83 -515 -156 -1013 -187 -96 -6 -361 -11 -589 -11 -767 1 -1004 30 -2216 277
-477 97 -539 110 -680 145 -107 27 -264 72 -305 87 -8 3 5 -18 30 -47 25 -29
78 -94 118 -144 40 -51 80 -101 89 -111 48 -58 142 -220 149 -256 0 -3 6 -18
12 -33 7 -16 12 -34 12 -42 0 -8 4 -16 9 -19 10 -6 26 -82 22 -103 -1 -7 5
-13 12 -13 20 0 29 -40 11 -47 -8 -3 -14 -11 -14 -18 0 -8 -8 -16 -19 -20 -57
-18 -203 -36 -321 -40 -133 -4 -134 -4 -75 10 33 7 77 17 99 20 21 3 36 9 33
11 -3 3 -31 1 -63 -5 -33 -6 -137 -13 -233 -16 -112 -3 -177 -9 -182 -16 -9
-15 -78 -3 -117 21 -34 21 -44 64 -19 89 10 10 8 15 -8 28 -14 11 -16 17 -7
20 6 3 12 19 12 36 0 21 -3 27 -9 19 -6 -11 -10 -11 -18 0 -19 25 -23 48 -8
48 8 0 15 -6 15 -12 0 -9 4 -8 10 2 17 26 11 40 -19 46 -33 7 -39 39 -9 47 16
5 16 8 -3 56 -30 79 -26 104 23 145 42 37 44 45 5 25 -19 -10 -18 -8 5 17 57
61 153 107 363 175 50 17 96 32 102 34 21 7 -20 71 -43 67 -23 -4 -106 -45
-286 -141 -76 -40 -142 -70 -148 -66 -14 9 -52 -14 -44 -27 4 -6 3 -8 -3 -5
-6 4 -29 -7 -51 -23 -40 -29 -42 -29 -52 -10 -19 36 -76 71 -124 75 -28 3 -46
1 -46 -6 0 -5 -5 -7 -10 -4 -20 12 -8 107 17 148 53 85 204 199 369 280 46 23
84 45 84 48 0 4 -29 15 -65 24 -134 37 -260 2 -356 -96 -63 -64 -156 -215
-157 -254 -1 -28 -19 -73 -62 -155 -30 -55 -23 -60 8 -7 30 52 116 155 169
200 43 37 42 27 -1 -20 -57 -64 -78 -110 -81 -183 -3 -83 -3 -81 -17 -79 -40
5 -58 -2 -58 -23 0 -12 -3 -19 -6 -15 -14 13 -30 -22 -48 -103 -10 -47 -21
-105 -23 -130 l-4 -45 78 -22 c43 -13 127 -32 187 -43 119 -22 138 -29 85 -31
l-34 -1 30 -8 c23 -6 25 -8 8 -9 -34 -2 -38 -21 -5 -21 34 0 62 -27 63 -61 1
-23 1 -23 11 4 15 42 25 32 24 -23 -1 -45 -3 -50 -23 -50 -13 0 -23 -4 -23 -9
0 -5 35 -7 78 -5 l77 3 -70 -13 c-38 -8 -79 -16 -90 -19 -11 -2 -45 -8 -75
-12 -59 -7 -245 -50 -284 -65 -13 -5 -39 -22 -59 -39 l-34 -31 -6 38 c-4 20
-9 79 -13 130 -7 92 -7 93 -24 67 -9 -14 -32 -39 -51 -55 -19 -16 -31 -29 -28
-30 13 0 -88 -99 -127 -124 -138 -90 -381 -72 -724 51 -177 63 -354 150 -565
277 -16 10 -1 -9 35 -43 36 -33 61 -60 57 -61 -4 0 -26 9 -48 21 -80 40 -61
12 21 -33 92 -49 113 -72 58 -62 -342 61 -618 134 -743 197 -33 16 -87 50
-119 74 -32 25 -56 38 -53 29 4 -9 1 -16 -5 -16 -6 0 -31 -20 -55 -45 -23 -25
-49 -45 -58 -45 -8 0 -15 -4 -15 -8 0 -15 -104 -62 -153 -68 -48 -7 -127 10
-127 28 0 4 -9 8 -20 8 -11 0 -30 10 -42 22 -14 14 -23 18 -26 10 -2 -7 -10
-12 -18 -12 -10 0 -14 -14 -15 -47 l-1 -48 -9 55 c-4 30 -17 127 -29 215 -11
88 -28 194 -36 235 -14 71 -20 97 -60 265 -24 103 -72 251 -105 323 l-29 63
-27 -18 c-16 -11 -98 -54 -183 -97 -85 -44 -171 -92 -192 -108 l-36 -28 -11
31 c-6 17 -15 28 -21 24 -5 -3 -10 -2 -10 3 0 5 -7 9 -15 9 -8 0 -15 -9 -15
-21 0 -17 -2 -18 -10 -6 -15 24 -12 60 11 108 37 76 240 220 349 248 l45 11
-32 17 c-66 34 -147 10 -221 -65 -23 -23 -42 -38 -42 -32 0 11 69 104 99 133
9 9 27 27 40 42 22 26 23 27 2 21 -11 -3 -19 -9 -16 -13 3 -5 0 -12 -6 -15
-17 -11 -79 -13 -79 -3 0 8 15 11 53 11 9 0 17 3 17 8 0 5 -25 8 -55 8 -30 -1
-55 -5 -55 -10 0 -5 8 -6 18 -2 18 7 17 5 -11 -17 -10 -7 -17 -9 -16 -4 3 19
-1 34 -12 34 -6 0 -8 -9 -4 -20 4 -11 2 -20 -4 -20 -6 0 -11 7 -11 15 0 8 -4
15 -10 15 -5 0 -10 -4 -10 -8 0 -5 -7 -9 -15 -9 -8 0 -15 4 -15 7 0 8 -80 10
-94 2 -5 -3 -32 -6 -60 -9 -28 -2 -76 -6 -106 -8 -30 -3 -116 -7 -190 -10
-156 -6 -184 -10 -173 -28 4 -8 1 -7 -10 2 -17 14 -120 8 -147 -9 -7 -5 -21
-3 -31 3 -14 9 -22 7 -37 -6 -15 -14 -21 -15 -30 -5 -8 11 -62 15 -82 8 -3 -1
-32 -2 -65 -1 -40 0 -55 -3 -45 -9 25 -15 2 -23 -30 -10 -19 8 -46 10 -73 6
-49 -8 -52 -8 -94 -2 -18 3 -44 1 -58 -4 l-25 -10 0 -1720 0 -1720 275 1 c206
0 275 3 275 12 0 9 2 9 8 0 6 -10 343 -12 1618 -10 1602 2 1609 2 1607 22 -3
18 -2 18 8 -2 11 -21 15 -21 266 -21 209 0 255 2 260 14 3 8 10 11 15 8 6 -4
5 -10 -3 -15 -8 -5 144 -9 350 -9 262 0 368 4 379 12 9 8 16 9 20 1 5 -7 161
-11 500 -12 340 -1 492 1 487 9 -3 5 1 10 9 10 9 0 16 -4 16 -10 0 -16 1937
-13 1943 3 4 9 6 9 6 0 1 -17 2627 -19 2648 -2 9 8 13 8 13 0 0 -17 1276 -16
1283 1 4 10 8 10 14 2 6 -8 123 -12 405 -13 l397 -2 0 92 c1 97 -3 115 -23
102 -7 -4 -4 -1 6 9 23 21 23 24 -4 32 l-23 6 23 19 22 19 0 1701 c0 1613 -1
1701 -17 1702 -107 3 -156 -1 -178 -15 -15 -10 -26 -12 -30 -6 -4 6 -11 8 -16
5 -5 -4 -9 -1 -9 4 0 6 -10 10 -22 9 -13 0 -27 0 -33 2 -5 1 -27 2 -49 1 -29
-1 -37 -4 -33 -15 4 -11 1 -13 -11 -9 -9 4 -20 11 -24 16 -7 12 -48 13 -100 3
-31 -6 -38 -4 -38 9 0 10 -10 15 -31 15 -16 0 -28 -4 -25 -9 3 -5 -9 -11 -27
-14 -17 -4 -47 -9 -64 -13 -52 -10 -80 1 -85 36 -3 18 0 31 8 34 9 3 11 -1 7
-12 -5 -14 -3 -15 8 -4 7 6 37 12 66 12 29 0 53 3 53 8 0 4 42 6 93 5 51 -1
100 3 108 8 9 7 -73 9 -249 7 -145 -2 -264 -4 -265 -4z m-10522 -599 c-14 -26
-25 -55 -25 -64 0 -36 45 -104 96 -143 37 -30 50 -45 41 -51 -9 -7 -9 -10 1
-14 6 -2 12 -11 12 -18 0 -8 4 -16 9 -20 6 -3 9 25 8 67 -2 87 17 119 99 174
57 38 189 88 205 78 14 -8 61 5 54 15 -5 9 18 22 38 20 7 0 3 -4 -8 -9 -19 -8
-19 -9 1 -9 21 -1 54 -51 54 -80 0 -7 13 -52 30 -101 16 -50 34 -118 40 -152
7 -35 20 -82 31 -105 10 -23 19 -55 19 -72 0 -33 -20 -43 -115 -57 -45 -7 -47
-8 -20 -13 17 -4 25 -9 20 -13 -20 -12 -208 -28 -256 -22 -34 5 -49 3 -49 -5
0 -7 26 -11 73 -12 71 0 171 -15 132 -19 -17 -2 -17 -3 5 -10 33 -11 122 -11
96 -1 -34 13 -1 22 56 15 52 -6 55 -8 72 -46 38 -88 63 -435 39 -535 -17 -71
-31 -86 -74 -85 -45 1 -90 13 -84 22 4 6 -34 19 -110 37 -16 3 -17 2 -5 -6 27
-19 -7 -12 -91 19 -151 55 -117 36 207 -116 28 -13 55 -24 60 -24 5 0 15 -9
22 -21 11 -17 11 -25 -4 -47 -25 -39 -72 -79 -100 -86 -58 -15 -348 117 -464
211 -56 45 -101 94 -111 122 -8 19 -12 22 -19 12 -6 -10 -16 1 -39 40 -17 30
-31 59 -32 64 -1 6 -2 21 -3 35 -1 14 -9 56 -16 94 l-14 69 39 34 c27 23 68
43 133 63 52 16 98 27 103 25 4 -3 13 11 18 32 14 48 14 56 1 48 -6 -4 -8 -10
-5 -15 3 -5 -11 -12 -32 -15 -21 -3 -57 -10 -81 -15 -23 -6 -53 -10 -65 -10
-13 0 -33 -9 -45 -20 -25 -24 -67 -26 -76 -4 -3 9 -6 100 -6 202 l1 187 20
-28 c12 -15 31 -33 42 -39 33 -18 231 -57 240 -48 5 4 6 17 3 28 -5 14 -19 21
-52 26 -45 6 -174 53 -184 66 -3 4 -15 12 -26 18 -25 13 -25 35 -5 135 12 56
38 118 89 205 33 57 38 49 7 -13z m9883 -142 c-5 -47 -29 -107 -78 -188 -23
-39 -23 -39 -2 -21 12 11 22 16 22 12 0 -17 -54 -114 -96 -174 -71 -99 -85
-105 -354 -156 -583 -110 -901 -132 -1780 -122 -750 9 -1004 23 -1210 66 -496
104 -907 215 -1007 270 -21 12 -29 18 -18 14 129 -44 232 -70 155 -38 l-35 14
35 -7 c19 -4 49 -7 65 -6 17 1 125 -20 240 -47 426 -100 707 -154 855 -164 90
-6 114 -11 -345 79 -176 35 -396 80 -490 100 -93 20 -204 42 -245 50 -41 7
-165 34 -275 59 -197 45 -285 75 -285 97 0 15 58 6 220 -32 69 -17 175 -41
235 -54 61 -13 207 -44 325 -70 968 -209 1329 -258 2005 -272 801 -16 1548 71
1750 204 51 34 116 102 170 178 50 70 125 212 125 238 0 9 5 17 11 17 8 0 10
-16 7 -47z m-5960 -416 c12 -11 22 -29 22 -40 0 -13 5 -17 14 -14 10 4 13 1
10 -7 -3 -8 4 -16 18 -20 22 -7 22 -7 3 -16 l-20 -8 20 -8 c11 -5 20 -16 20
-24 0 -10 12 -16 31 -18 18 -2 40 -12 50 -23 9 -10 29 -20 43 -20 17 -1 20 -3
9 -6 -10 -2 -18 -7 -18 -10 0 -3 8 -12 18 -19 14 -11 15 -15 3 -23 -11 -7 -10
-10 5 -14 57 -16 -104 8 -171 25 -44 12 -88 20 -98 20 -9 0 -15 4 -11 9 3 6
-5 7 -22 3 -18 -5 -25 -3 -21 3 6 10 -15 25 -37 27 -5 1 -16 12 -25 25 -15 24
-15 24 9 11 l25 -13 -19 22 c-17 18 -17 21 -3 15 11 -4 17 -1 17 8 0 8 9 25
20 38 11 13 20 27 20 33 0 5 13 7 29 5 17 -2 28 -1 25 4 -3 4 -12 8 -19 8 -8
0 -12 7 -10 15 3 8 7 22 10 31 5 17 17 12 53 -19z m5616 -286 c8 -13 -28 -19
-169 -31 -66 -6 -145 -14 -175 -19 -30 -5 -109 -12 -175 -16 -66 -3 -135 -9
-154 -12 l-34 -6 34 -18 c19 -9 47 -31 63 -47 32 -35 31 -35 301 -5 221 24
266 30 328 46 31 8 57 12 57 9 0 -11 -75 -31 -158 -42 -42 -6 -123 -17 -179
-25 -57 -9 -150 -18 -208 -22 -91 -5 -103 -8 -96 -22 5 -9 9 -29 9 -46 1 -16
4 -46 8 -65 3 -19 5 -52 5 -74 -2 -35 0 -38 21 -32 31 8 214 20 208 13 -3 -3
-57 -10 -120 -17 l-115 -11 -34 -41 c-19 -22 -49 -49 -65 -60 l-31 -19 75 6
c41 3 113 10 160 15 273 31 320 35 320 28 0 -4 -7 -8 -16 -8 -9 0 -89 -9 -178
-20 -285 -35 -1010 -92 -1126 -89 -60 2 63 14 360 34 129 9 250 18 268 22 l34
6 -39 17 c-21 9 -46 27 -57 38 -10 12 -21 20 -25 18 -8 -4 -35 26 -40 45 -2 8
-12 43 -22 79 -13 48 -16 75 -9 104 l9 39 -102 -6 c-56 -4 -217 -11 -357 -17
-140 -6 -263 -12 -272 -14 -10 -2 -20 -1 -23 3 -2 5 98 13 223 20 344 17 542
33 542 43 0 5 22 31 50 59 l49 49 -37 -5 c-20 -2 -143 -9 -272 -15 -129 -6
-320 -15 -424 -21 -104 -5 -191 -7 -193 -5 -8 8 80 15 317 26 539 24 714 37
1335 102 55 5 102 12 104 14 7 7 20 4 25 -5z m-4709 -322 c211 -17 304 -31
298 -45 -3 -8 9 -15 33 -20 l37 -7 -7 -76 c-4 -42 -7 -84 -7 -94 0 -10 -4 -30
-9 -43 -6 -15 -6 -24 0 -24 10 0 -27 -70 -43 -81 -4 -3 -10 -23 -13 -45 -2
-21 -15 -60 -28 -86 -12 -27 -17 -43 -10 -37 28 23 150 195 177 248 15 31 25
45 21 31 -26 -98 -163 -287 -330 -454 l-33 -33 -108 27 c-158 40 -349 106
-418 145 -34 19 -82 55 -108 80 -65 65 -70 106 -28 212 24 59 30 87 26 114 -5
28 -3 38 9 42 17 7 22 37 6 37 -5 0 -10 20 -10 44 l0 43 63 16 c104 28 199 29
482 6z m-560 -39 c-3 -5 -14 -10 -23 -10 -12 0 -13 -3 -4 -12 8 -8 6 -18 -9
-40 -17 -23 -18 -28 -5 -28 9 0 16 -4 16 -10 0 -5 -5 -10 -11 -10 -5 0 -7 -5
-3 -12 5 -7 2 -9 -8 -5 -12 4 -15 0 -13 -19 2 -22 -7 -30 -68 -61 -228 -114
-308 -249 -226 -379 31 -49 31 -49 4 -24 -88 82 -261 443 -223 466 5 4 7 19 4
35 -3 16 -2 37 2 46 5 13 9 4 12 -27 5 -48 16 -52 65 -30 79 36 195 73 290 94
39 8 88 19 110 25 55 12 98 13 90 1z m5805 -300 c0 -5 -9 -10 -19 -10 -10 0
-52 -14 -92 -31 -273 -115 -524 -166 -1049 -213 -624 -56 -1201 -68 -2645 -56
-444 4 -592 2 -670 -8 -114 -16 -247 -43 -320 -67 -27 -9 -84 -25 -125 -35
-110 -27 -273 -80 -285 -92 -7 -8 -6 -9 2 -4 16 9 43 -4 43 -21 0 -8 5 -11 11
-7 8 5 8 1 0 -14 -11 -22 -103 -86 -146 -102 -38 -14 -162 -12 -215 4 -158 48
-422 174 -521 248 -31 23 -68 61 -83 83 -46 74 -29 167 45 245 39 42 77 72 65
53 -5 -9 0 -13 16 -14 19 -1 18 -2 -6 -8 -21 -4 -33 -15 -43 -38 -11 -28 -11
-31 2 -27 11 5 12 -1 4 -31 -6 -20 -8 -39 -5 -42 10 -10 24 7 30 37 3 19 10
29 17 25 11 -7 40 25 33 36 -2 4 6 15 17 25 l21 19 -7 -48 c-7 -47 -6 -50 31
-89 23 -24 72 -56 119 -78 44 -21 118 -56 165 -78 47 -22 148 -66 225 -97
l139 -56 71 26 c82 30 116 49 70 39 -43 -9 131 119 215 158 95 44 110 49 167
57 42 6 51 5 42 -5 -6 -7 -8 -17 -5 -22 3 -5 -1 -20 -9 -35 -12 -24 -12 -27 3
-28 14 0 13 -2 -3 -10 -16 -7 -14 -8 10 -4 213 33 583 38 1540 21 421 -7 538
-6 740 8 132 9 382 23 555 31 527 26 705 40 1145 95 356 44 376 49 600 144 63
27 105 33 105 16z"/>
<path d="M1462 2338 c-6 -6 -12 -19 -12 -27 0 -17 -61 -71 -79 -71 -6 0 -16
-10 -22 -22 -12 -22 -11 -22 22 3 43 32 87 50 49 19 -14 -11 -29 -20 -33 -20
-5 0 -5 -5 -1 -12 4 -6 3 -8 -3 -5 -8 5 -64 -52 -86 -89 -9 -16 1 -64 14 -64
5 0 9 10 9 23 0 13 14 36 32 53 18 16 26 20 17 9 -34 -43 -35 -51 -4 -31 17
10 36 26 44 35 12 14 12 13 6 -7 -5 -18 1 -30 30 -58 31 -29 155 -102 155 -91
0 2 -24 20 -53 40 -61 42 -97 98 -98 154 -2 56 11 137 23 144 6 4 9 12 7 18
-3 9 -8 8 -17 -1z"/>
<path d="M10024 2185 c-42 -18 -79 -60 -92 -104 -28 -98 -29 -107 -15 -153 7
-26 17 -49 22 -52 5 -3 39 22 76 56 l68 62 -7 95 c-4 53 -10 99 -14 103 -4 3
-21 1 -38 -7z"/>
<path d="M10111 2149 c11 -28 24 -73 30 -99 8 -36 19 -55 42 -73 18 -14 45
-36 62 -51 25 -22 31 -23 38 -10 5 9 7 52 4 96 -4 70 -8 84 -28 100 -13 11
-17 16 -9 12 8 -4 4 5 -9 19 -13 15 -28 24 -32 21 -5 -3 -9 -1 -9 3 0 11 -59
33 -87 33 l-21 0 19 -51z"/>
<path d="M10038 1892 c-43 -20 -78 -42 -78 -48 0 -38 113 -91 167 -78 62 15
133 69 133 100 0 11 -120 65 -138 63 -4 0 -42 -17 -84 -37z"/>
</g>
</svg>
